<!-- made by Ephraim Duncan (@ephraimduncan) for buildspace nights and weekends -->
<svg width="577" height="184" viewBox="0 0 577 184" fill="none" xmlns="http://www.w3.org/2000/svg">
<rect x="0.25" y="0.25" width="576.5" height="183.5" stroke="#FFE500" stroke-width="0.5"/>
<g clip-path="url(#clip0_2002_13)">
<path d="M107.037 51.677L111.557 46.9883C114.799 43.2373 121.036 42.4536 125.009 46.6956L172.887 97.8125C176.833 102.025 175.803 108.794 170.782 111.658L122.904 138.97C119.605 140.852 115.858 140.395 113.157 138.457L66.0171 111.565C60.9957 108.701 59.9667 101.932 63.9122 97.7195C65.729 95.7798 68.6522 95.3444 70.9608 96.6698L113.157 120.812V102.677L85.6244 87.0257C81.7368 84.7895 80.9458 79.5411 84.0028 76.2698L84.0084 76.2637L84.0129 76.2589C86.2343 73.8917 89.8048 73.3613 92.6251 74.9805L113.157 86.5471V69.0422L106.625 64.9553C102.624 62.6582 99.0119 60.2452 102.161 56.8833L107.037 51.677Z" fill="#FFE500"/>
</g>
<path d="M250.839 129V104.04C250.839 102.408 250.727 100.6 250.503 98.616C250.279 96.632 249.751 94.728 248.919 92.904C248.119 91.048 246.903 89.528 245.271 88.344C243.671 87.16 241.495 86.568 238.743 86.568C237.271 86.568 235.815 86.808 234.375 87.288C232.935 87.768 231.623 88.6 230.439 89.784C229.287 90.936 228.359 92.536 227.655 94.584C226.951 96.6 226.599 99.192 226.599 102.36L219.735 99.432C219.735 95.016 220.583 91.016 222.279 87.432C224.007 83.848 226.535 81 229.863 78.888C233.191 76.744 237.287 75.672 242.151 75.672C245.991 75.672 249.159 76.312 251.655 77.592C254.151 78.872 256.135 80.504 257.607 82.488C259.079 84.472 260.167 86.584 260.871 88.824C261.575 91.064 262.023 93.192 262.215 95.208C262.439 97.192 262.551 98.808 262.551 100.056V129H250.839ZM214.887 129V77.16H225.207V93.24H226.599V129H214.887ZM294.132 130.44C290.292 130.44 286.66 129.88 283.236 128.76C279.844 127.608 277.012 125.8 274.74 123.336C272.916 121.32 271.572 119.128 270.708 116.76C269.876 114.36 269.412 111.8 269.316 109.08C269.316 106.424 269.7 103.848 270.468 101.352C271.268 98.856 272.484 96.648 274.116 94.728C274.756 93.96 275.444 93.288 276.18 92.712C276.948 92.104 277.716 91.56 278.484 91.08C276.596 88.968 275.156 86.92 274.164 84.936C273.204 82.952 272.724 80.616 272.724 77.928C272.724 73.896 273.812 70.28 275.988 67.08C278.164 63.88 281.124 61.576 284.868 60.168C286.5 59.56 288.148 59.144 289.812 58.92C291.508 58.696 293.156 58.584 294.756 58.584C297.764 58.584 300.66 59.048 303.444 59.976C306.228 60.872 308.596 62.344 310.548 64.392C311.796 65.576 312.836 66.92 313.668 68.424C314.5 69.896 315.124 71.416 315.54 72.984L304.116 75.432C303.668 73.992 302.884 72.76 301.764 71.736C300.804 70.808 299.668 70.2 298.356 69.912C297.044 69.592 295.748 69.432 294.468 69.432C292.42 69.432 290.612 69.8 289.044 70.536C287.476 71.272 286.308 72.264 285.54 73.512C284.804 74.76 284.436 76.28 284.436 78.072C284.436 79.672 284.724 80.952 285.3 81.912C285.908 82.872 286.644 83.848 287.508 84.84C288.084 85.48 288.788 86.184 289.62 86.952C290.452 87.72 291.316 88.52 292.212 89.352L309.588 105.432C309.62 104.792 309.636 104.104 309.636 103.368C309.636 102.6 309.636 101.88 309.636 101.208V92.76H319.812V105.288C319.812 107.016 319.764 108.696 319.668 110.328C319.572 111.928 319.38 113.256 319.092 114.312L327.684 122.184L320.244 130.104L313.572 123.768C311.94 125.304 310.148 126.552 308.196 127.512C306.244 128.472 304.276 129.16 302.292 129.576C300.852 129.928 299.476 130.152 298.164 130.248C296.852 130.376 295.508 130.44 294.132 130.44ZM294.612 119.448C295.604 119.448 296.532 119.4 297.396 119.304C298.292 119.208 299.156 119.016 299.988 118.728C301.172 118.376 302.18 117.96 303.012 117.48C303.876 117 304.628 116.504 305.268 115.992L286.98 99.192C286.116 99.512 285.332 99.928 284.628 100.44C283.956 100.92 283.38 101.464 282.9 102.072C282.292 102.872 281.812 103.816 281.46 104.904C281.14 105.96 280.98 107.128 280.98 108.408C281.012 109.88 281.252 111.192 281.7 112.344C282.148 113.464 282.74 114.472 283.476 115.368C284.628 116.84 286.276 117.896 288.42 118.536C290.564 119.144 292.628 119.448 294.612 119.448ZM342.655 129L326.815 77.064L338.143 77.16L348.271 110.424L358.543 77.16H368.287L378.511 110.424L388.687 77.16H400.015L384.175 129H375.151L363.391 93.336L351.679 129H342.655ZM439.56 130.392C433.48 130.392 428.472 129.08 424.536 126.456C420.632 123.832 418.232 120.184 417.336 115.512L424.536 114.312C425.304 117.256 427.048 119.608 429.768 121.368C432.52 123.096 435.912 123.96 439.944 123.96C443.88 123.96 446.984 123.144 449.256 121.512C451.528 119.848 452.664 117.592 452.664 114.744C452.664 113.144 452.296 111.848 451.56 110.856C450.856 109.832 449.4 108.888 447.192 108.024C444.984 107.16 441.688 106.136 437.304 104.952C432.6 103.672 428.92 102.392 426.264 101.112C423.608 99.832 421.72 98.36 420.6 96.696C419.48 95 418.92 92.936 418.92 90.504C418.92 87.56 419.752 84.984 421.416 82.776C423.08 80.536 425.384 78.808 428.328 77.592C431.272 76.344 434.696 75.72 438.6 75.72C442.504 75.72 445.992 76.36 449.064 77.64C452.168 78.888 454.664 80.648 456.552 82.92C458.44 85.192 459.56 87.832 459.912 90.84L452.712 92.136C452.232 89.096 450.712 86.696 448.152 84.936C445.624 83.144 442.408 82.216 438.504 82.152C434.824 82.056 431.832 82.76 429.528 84.264C427.224 85.736 426.072 87.704 426.072 90.168C426.072 91.544 426.488 92.728 427.32 93.72C428.152 94.68 429.656 95.592 431.832 96.456C434.04 97.32 437.176 98.264 441.24 99.288C446.008 100.504 449.752 101.784 452.472 103.128C455.192 104.472 457.128 106.056 458.28 107.88C459.432 109.704 460.008 111.96 460.008 114.648C460.008 119.544 458.184 123.4 454.536 126.216C450.92 129 445.928 130.392 439.56 130.392ZM487.214 130.44C483.63 130.44 480.318 129.704 477.278 128.232C474.238 126.76 471.646 124.728 469.502 122.136C467.358 119.544 465.822 116.568 464.894 113.208L471.662 111.384C472.27 113.88 473.374 116.04 474.974 117.864C476.574 119.656 478.446 121.048 480.59 122.04C482.766 123.032 485.038 123.528 487.406 123.528C490.478 123.528 493.23 122.792 495.662 121.32C498.126 119.816 500.078 117.832 501.518 115.368C502.958 112.904 503.678 110.2 503.678 107.256C503.678 104.216 502.926 101.48 501.422 99.048C499.918 96.584 497.934 94.632 495.47 93.192C493.006 91.752 490.318 91.032 487.406 91.032C484.142 91.032 481.326 91.752 478.958 93.192C476.59 94.6 474.702 96.376 473.294 98.52L466.862 95.832L468.974 59.88H505.886V66.648H472.094L475.598 63.336L473.726 94.008L471.95 91.656C473.934 89.384 476.334 87.608 479.15 86.328C481.966 85.048 484.926 84.408 488.03 84.408C492.286 84.408 496.126 85.432 499.55 87.48C502.974 89.496 505.694 92.232 507.71 95.688C509.726 99.144 510.734 103 510.734 107.256C510.734 111.48 509.662 115.352 507.518 118.872C505.374 122.36 502.526 125.16 498.974 127.272C495.422 129.384 491.502 130.44 487.214 130.44Z" fill="#FFE500"/>
<defs>
<clipPath id="clip0_2002_13">
<rect width="114" height="114" fill="white" transform="translate(61.5 35)"/>
</clipPath>
</defs>
</svg>
